<svg id="visual" viewBox="0 0 1920 1080" width="1920" height="1080" xmlns="http://www.w3.org/2000/svg" xmlns:xlink="http://www.w3.org/1999/xlink" version="1.1"><path d="M0 77L26.7 73.3C53.3 69.7 106.7 62.3 160 60.5C213.3 58.7 266.7 62.3 320 69.5C373.3 76.7 426.7 87.3 480 89.2C533.3 91 586.7 84 640 87.7C693.3 91.3 746.7 105.7 800 109.2C853.3 112.7 906.7 105.3 960 110.7C1013.3 116 1066.7 134 1120 137.7C1173.3 141.3 1226.7 130.7 1280 121.7C1333.3 112.7 1386.7 105.3 1440 99.8C1493.3 94.3 1546.7 90.7 1600 94.3C1653.3 98 1706.7 109 1760 105.5C1813.3 102 1866.7 84 1893.3 75L1920 66L1920 0L1893.3 0C1866.7 0 1813.3 0 1760 0C1706.7 0 1653.3 0 1600 0C1546.7 0 1493.3 0 1440 0C1386.7 0 1333.3 0 1280 0C1226.7 0 1173.3 0 1120 0C1066.7 0 1013.3 0 960 0C906.7 0 853.3 0 800 0C746.7 0 693.3 0 640 0C586.7 0 533.3 0 480 0C426.7 0 373.3 0 320 0C266.7 0 213.3 0 160 0C106.7 0 53.3 0 26.7 0L0 0Z" fill="#1b1f25"></path><path d="M0 141L26.7 139.3C53.3 137.7 106.7 134.3 160 139.8C213.3 145.3 266.7 159.7 320 165C373.3 170.3 426.7 166.7 480 157.7C533.3 148.7 586.7 134.3 640 136.2C693.3 138 746.7 156 800 172.2C853.3 188.3 906.7 202.7 960 206.2C1013.3 209.7 1066.7 202.3 1120 202.3C1173.3 202.3 1226.7 209.7 1280 213.3C1333.3 217 1386.7 217 1440 213.3C1493.3 209.7 1546.7 202.3 1600 200.5C1653.3 198.7 1706.7 202.3 1760 188C1813.3 173.7 1866.7 141.3 1893.3 125.2L1920 109L1920 64L1893.3 73C1866.7 82 1813.3 100 1760 103.5C1706.7 107 1653.3 96 1600 92.3C1546.7 88.7 1493.3 92.3 1440 97.8C1386.7 103.3 1333.3 110.7 1280 119.7C1226.7 128.7 1173.3 139.3 1120 135.7C1066.7 132 1013.3 114 960 108.7C906.7 103.3 853.3 110.7 800 107.2C746.7 103.7 693.3 89.3 640 85.7C586.7 82 533.3 89 480 87.2C426.7 85.3 373.3 74.7 320 67.5C266.7 60.3 213.3 56.7 160 58.5C106.7 60.3 53.3 67.7 26.7 71.3L0 75Z" fill="#1d2228"></path><path d="M0 239L26.7 246.2C53.3 253.3 106.7 267.7 160 296.3C213.3 325 266.7 368 320 380.5C373.3 393 426.7 375 480 348C533.3 321 586.7 285 640 283.3C693.3 281.7 746.7 314.3 800 337.8C853.3 361.3 906.7 375.7 960 368.3C1013.3 361 1066.7 332 1120 321.2C1173.3 310.3 1226.7 317.7 1280 326.7C1333.3 335.7 1386.7 346.3 1440 364.3C1493.3 382.3 1546.7 407.7 1600 404.2C1653.3 400.7 1706.7 368.3 1760 354C1813.3 339.7 1866.7 343.3 1893.3 345.2L1920 347L1920 107L1893.3 123.2C1866.7 139.3 1813.3 171.7 1760 186C1706.7 200.3 1653.3 196.7 1600 198.5C1546.7 200.3 1493.3 207.7 1440 211.3C1386.7 215 1333.3 215 1280 211.3C1226.7 207.7 1173.3 200.3 1120 200.3C1066.7 200.3 1013.3 207.7 960 204.2C906.7 200.7 853.3 186.3 800 170.2C746.7 154 693.3 136 640 134.2C586.7 132.3 533.3 146.7 480 155.7C426.7 164.7 373.3 168.3 320 163C266.7 157.7 213.3 143.3 160 137.8C106.7 132.3 53.3 135.7 26.7 137.3L0 139Z" fill="#1f242c"></path><path d="M0 584L26.7 585.8C53.3 587.7 106.7 591.3 160 596.8C213.3 602.3 266.7 609.7 320 616.8C373.3 624 426.7 631 480 595C533.3 559 586.7 480 640 460.2C693.3 440.3 746.7 479.7 800 495.8C853.3 512 906.7 505 960 497.8C1013.3 490.7 1066.7 483.3 1120 499.5C1173.3 515.7 1226.7 555.3 1280 591.3C1333.3 627.3 1386.7 659.7 1440 684.8C1493.3 710 1546.7 728 1600 701C1653.3 674 1706.7 602 1760 557C1813.3 512 1866.7 494 1893.3 485L1920 476L1920 345L1893.3 343.2C1866.7 341.3 1813.3 337.7 1760 352C1706.7 366.3 1653.3 398.7 1600 402.2C1546.7 405.7 1493.3 380.3 1440 362.3C1386.7 344.3 1333.3 333.7 1280 324.7C1226.7 315.7 1173.3 308.3 1120 319.2C1066.7 330 1013.3 359 960 366.3C906.7 373.7 853.3 359.3 800 335.8C746.7 312.3 693.3 279.7 640 281.3C586.7 283 533.3 319 480 346C426.7 373 373.3 391 320 378.5C266.7 366 213.3 323 160 294.3C106.7 265.7 53.3 251.3 26.7 244.2L0 237Z" fill="#21272f"></path><path d="M0 660L26.7 663.5C53.3 667 106.7 674 160 679.3C213.3 684.7 266.7 688.3 320 697.3C373.3 706.3 426.7 720.7 480 684.7C533.3 648.7 586.7 562.3 640 542.7C693.3 523 746.7 570 800 582.7C853.3 595.3 906.7 573.7 960 564.7C1013.3 555.7 1066.7 559.3 1120 582.7C1173.3 606 1226.7 649 1280 686.7C1333.3 724.3 1386.7 756.7 1440 783.7C1493.3 810.7 1546.7 832.3 1600 798.2C1653.3 764 1706.7 674 1760 627.2C1813.3 580.3 1866.7 576.7 1893.3 574.8L1920 573L1920 474L1893.3 483C1866.7 492 1813.3 510 1760 555C1706.7 600 1653.3 672 1600 699C1546.7 726 1493.3 708 1440 682.8C1386.7 657.7 1333.3 625.3 1280 589.3C1226.7 553.3 1173.3 513.7 1120 497.5C1066.7 481.3 1013.3 488.7 960 495.8C906.7 503 853.3 510 800 493.8C746.7 477.7 693.3 438.3 640 458.2C586.7 478 533.3 557 480 593C426.7 629 373.3 622 320 614.8C266.7 607.7 213.3 600.3 160 594.8C106.7 589.3 53.3 585.7 26.7 583.8L0 582Z" fill="#262d36"></path><path d="M0 833L26.7 834.7C53.3 836.3 106.7 839.7 160 825.2C213.3 810.7 266.7 778.3 320 776.7C373.3 775 426.7 804 480 771.7C533.3 739.3 586.7 645.7 640 631.2C693.3 616.7 746.7 681.3 800 706.5C853.3 731.7 906.7 717.3 960 706.5C1013.3 695.7 1066.7 688.3 1120 695.5C1173.3 702.7 1226.7 724.3 1280 758.7C1333.3 793 1386.7 840 1440 870.7C1493.3 901.3 1546.7 915.7 1600 886.8C1653.3 858 1706.7 786 1760 737.3C1813.3 688.7 1866.7 663.3 1893.3 650.7L1920 638L1920 571L1893.3 572.8C1866.7 574.7 1813.3 578.3 1760 625.2C1706.7 672 1653.3 762 1600 796.2C1546.7 830.3 1493.3 808.7 1440 781.7C1386.7 754.7 1333.3 722.3 1280 684.7C1226.7 647 1173.3 604 1120 580.7C1066.7 557.3 1013.3 553.7 960 562.7C906.7 571.7 853.3 593.3 800 580.7C746.7 568 693.3 521 640 540.7C586.7 560.3 533.3 646.7 480 682.7C426.7 718.7 373.3 704.3 320 695.3C266.7 686.3 213.3 682.7 160 677.3C106.7 672 53.3 665 26.7 661.5L0 658Z" fill="#2f3741"></path><path d="M0 1005L26.7 1006.8C53.3 1008.7 106.7 1012.3 160 1012.3C213.3 1012.3 266.7 1008.7 320 1012.3C373.3 1016 426.7 1027 480 1025.3C533.3 1023.7 586.7 1009.3 640 1002.2C693.3 995 746.7 995 800 993.2C853.3 991.3 906.7 987.7 960 989.3C1013.3 991 1066.7 998 1120 1001.5C1173.3 1005 1226.7 1005 1280 1006.8C1333.3 1008.7 1386.7 1012.3 1440 1019.7C1493.3 1027 1546.7 1038 1600 1032.7C1653.3 1027.3 1706.7 1005.7 1760 1005.7C1813.3 1005.7 1866.7 1027.3 1893.3 1038.2L1920 1049L1920 636L1893.3 648.7C1866.7 661.3 1813.3 686.7 1760 735.3C1706.7 784 1653.3 856 1600 884.8C1546.7 913.7 1493.3 899.3 1440 868.7C1386.7 838 1333.3 791 1280 756.7C1226.7 722.3 1173.3 700.7 1120 693.5C1066.7 686.3 1013.3 693.7 960 704.5C906.7 715.3 853.3 729.7 800 704.5C746.7 679.3 693.3 614.7 640 629.2C586.7 643.7 533.3 737.3 480 769.7C426.7 802 373.3 773 320 774.7C266.7 776.3 213.3 808.7 160 823.2C106.7 837.7 53.3 834.3 26.7 832.7L0 831Z" fill="#39414c"></path><path d="M0 1081L26.7 1081C53.3 1081 106.7 1081 160 1081C213.3 1081 266.7 1081 320 1081C373.3 1081 426.7 1081 480 1081C533.3 1081 586.7 1081 640 1081C693.3 1081 746.7 1081 800 1081C853.3 1081 906.7 1081 960 1081C1013.3 1081 1066.7 1081 1120 1081C1173.3 1081 1226.7 1081 1280 1081C1333.3 1081 1386.7 1081 1440 1081C1493.3 1081 1546.7 1081 1600 1081C1653.3 1081 1706.7 1081 1760 1081C1813.3 1081 1866.7 1081 1893.3 1081L1920 1081L1920 1047L1893.3 1036.2C1866.7 1025.3 1813.3 1003.7 1760 1003.7C1706.7 1003.7 1653.3 1025.3 1600 1030.7C1546.7 1036 1493.3 1025 1440 1017.7C1386.7 1010.3 1333.3 1006.7 1280 1004.8C1226.7 1003 1173.3 1003 1120 999.5C1066.7 996 1013.3 989 960 987.3C906.7 985.7 853.3 989.3 800 991.2C746.7 993 693.3 993 640 1000.2C586.7 1007.3 533.3 1021.7 480 1023.3C426.7 1025 373.3 1014 320 1010.3C266.7 1006.7 213.3 1010.3 160 1010.3C106.7 1010.3 53.3 1006.7 26.7 1004.8L0 1003Z" fill="#424b58"></path></svg>