<svg id="visual" viewBox="0 0 1920 650" width="1920" height="650" xmlns="http://www.w3.org/2000/svg" xmlns:xlink="http://www.w3.org/1999/xlink" version="1.1"><path d="M0 47L26.7 44.8C53.3 42.7 106.7 38.3 160 37.2C213.3 36 266.7 38 320 42.3C373.3 46.7 426.7 53.3 480 54.5C533.3 55.7 586.7 51.3 640 53.5C693.3 55.7 746.7 64.3 800 66.5C853.3 68.7 906.7 64.3 960 67.5C1013.3 70.7 1066.7 81.3 1120 83.5C1173.3 85.7 1226.7 79.3 1280 74C1333.3 68.7 1386.7 64.3 1440 61C1493.3 57.7 1546.7 55.3 1600 57.5C1653.3 59.7 1706.7 66.3 1760 64.2C1813.3 62 1866.7 51 1893.3 45.5L1920 40L1920 0L1893.3 0C1866.7 0 1813.3 0 1760 0C1706.7 0 1653.3 0 1600 0C1546.7 0 1493.3 0 1440 0C1386.7 0 1333.3 0 1280 0C1226.7 0 1173.3 0 1120 0C1066.7 0 1013.3 0 960 0C906.7 0 853.3 0 800 0C746.7 0 693.3 0 640 0C586.7 0 533.3 0 480 0C426.7 0 373.3 0 320 0C266.7 0 213.3 0 160 0C106.7 0 53.3 0 26.7 0L0 0Z" fill="#1b1f25"></path><path d="M0 86L26.7 84.8C53.3 83.7 106.7 81.3 160 84.5C213.3 87.7 266.7 96.3 320 99.7C373.3 103 426.7 101 480 95.7C533.3 90.3 586.7 81.7 640 82.7C693.3 83.7 746.7 94.3 800 104C853.3 113.7 906.7 122.3 960 124.5C1013.3 126.7 1066.7 122.3 1120 122.3C1173.3 122.3 1226.7 126.7 1280 128.8C1333.3 131 1386.7 131 1440 128.8C1493.3 126.7 1546.7 122.3 1600 121.3C1653.3 120.3 1706.7 122.7 1760 114C1813.3 105.3 1866.7 85.7 1893.3 75.8L1920 66L1920 38L1893.3 43.5C1866.7 49 1813.3 60 1760 62.2C1706.7 64.3 1653.3 57.7 1600 55.5C1546.7 53.3 1493.3 55.7 1440 59C1386.7 62.3 1333.3 66.7 1280 72C1226.7 77.3 1173.3 83.7 1120 81.5C1066.7 79.3 1013.3 68.7 960 65.5C906.7 62.3 853.3 66.7 800 64.5C746.7 62.3 693.3 53.7 640 51.5C586.7 49.3 533.3 53.7 480 52.5C426.7 51.3 373.3 44.7 320 40.3C266.7 36 213.3 34 160 35.2C106.7 36.3 53.3 40.7 26.7 42.8L0 45Z" fill="#1d2228"></path><path d="M0 144L26.7 148.3C53.3 152.7 106.7 161.3 160 178.7C213.3 196 266.7 222 320 229.7C373.3 237.3 426.7 226.7 480 210.5C533.3 194.3 586.7 172.7 640 171.5C693.3 170.3 746.7 189.7 800 203.7C853.3 217.7 906.7 226.3 960 222C1013.3 217.7 1066.7 200.3 1120 193.8C1173.3 187.3 1226.7 191.7 1280 197.2C1333.3 202.7 1386.7 209.3 1440 220.2C1493.3 231 1546.7 246 1600 243.8C1653.3 241.7 1706.7 222.3 1760 213.7C1813.3 205 1866.7 207 1893.3 208L1920 209L1920 64L1893.3 73.8C1866.7 83.7 1813.3 103.3 1760 112C1706.7 120.7 1653.3 118.3 1600 119.3C1546.7 120.3 1493.3 124.7 1440 126.8C1386.7 129 1333.3 129 1280 126.8C1226.7 124.7 1173.3 120.3 1120 120.3C1066.7 120.3 1013.3 124.7 960 122.5C906.7 120.3 853.3 111.7 800 102C746.7 92.3 693.3 81.7 640 80.7C586.7 79.7 533.3 88.3 480 93.7C426.7 99 373.3 101 320 97.7C266.7 94.3 213.3 85.7 160 82.5C106.7 79.3 53.3 81.7 26.7 82.8L0 84Z" fill="#1f242c"></path><path d="M0 352L26.7 353.2C53.3 354.3 106.7 356.7 160 359.8C213.3 363 266.7 367 320 371.3C373.3 375.7 426.7 380.3 480 358.8C533.3 337.3 586.7 289.7 640 277.7C693.3 265.7 746.7 289.3 800 299C853.3 308.7 906.7 304.3 960 300C1013.3 295.7 1066.7 291.3 1120 301.2C1173.3 311 1226.7 335 1280 356.7C1333.3 378.3 1386.7 397.7 1440 412.7C1493.3 427.7 1546.7 438.3 1600 422.2C1653.3 406 1706.7 363 1760 336C1813.3 309 1866.7 298 1893.3 292.5L1920 287L1920 207L1893.3 206C1866.7 205 1813.3 203 1760 211.7C1706.7 220.3 1653.3 239.7 1600 241.8C1546.7 244 1493.3 229 1440 218.2C1386.7 207.3 1333.3 200.7 1280 195.2C1226.7 189.7 1173.3 185.3 1120 191.8C1066.7 198.3 1013.3 215.7 960 220C906.7 224.3 853.3 215.7 800 201.7C746.7 187.7 693.3 168.3 640 169.5C586.7 170.7 533.3 192.3 480 208.5C426.7 224.7 373.3 235.3 320 227.7C266.7 220 213.3 194 160 176.7C106.7 159.3 53.3 150.7 26.7 146.3L0 142Z" fill="#21272f"></path><path d="M0 398L26.7 400.2C53.3 402.3 106.7 406.7 160 409.8C213.3 413 266.7 415 320 420.3C373.3 425.7 426.7 434.3 480 412.7C533.3 391 586.7 339 640 327C693.3 315 746.7 343 800 350.7C853.3 358.3 906.7 345.7 960 340.3C1013.3 335 1066.7 337 1120 351C1173.3 365 1226.7 391 1280 413.8C1333.3 436.7 1386.7 456.3 1440 472.7C1493.3 489 1546.7 502 1600 481.3C1653.3 460.7 1706.7 406.3 1760 378.2C1813.3 350 1866.7 348 1893.3 347L1920 346L1920 285L1893.3 290.5C1866.7 296 1813.3 307 1760 334C1706.7 361 1653.3 404 1600 420.2C1546.7 436.3 1493.3 425.7 1440 410.7C1386.7 395.7 1333.3 376.3 1280 354.7C1226.7 333 1173.3 309 1120 299.2C1066.7 289.3 1013.3 293.7 960 298C906.7 302.3 853.3 306.7 800 297C746.7 287.3 693.3 263.7 640 275.7C586.7 287.7 533.3 335.3 480 356.8C426.7 378.3 373.3 373.7 320 369.3C266.7 365 213.3 361 160 357.8C106.7 354.7 53.3 352.3 26.7 351.2L0 350Z" fill="#262d36"></path><path d="M0 502L26.7 503C53.3 504 106.7 506 160 497.2C213.3 488.3 266.7 468.7 320 467.7C373.3 466.7 426.7 484.3 480 465C533.3 445.7 586.7 389.3 640 380.5C693.3 371.7 746.7 410.3 800 425.5C853.3 440.7 906.7 432.3 960 426C1013.3 419.7 1066.7 415.3 1120 419.5C1173.3 423.7 1226.7 436.3 1280 456.8C1333.3 477.3 1386.7 505.7 1440 524.2C1493.3 542.7 1546.7 551.3 1600 534C1653.3 516.7 1706.7 473.3 1760 444.2C1813.3 415 1866.7 400 1893.3 392.5L1920 385L1920 344L1893.3 345C1866.7 346 1813.3 348 1760 376.2C1706.7 404.3 1653.3 458.7 1600 479.3C1546.7 500 1493.3 487 1440 470.7C1386.7 454.3 1333.3 434.7 1280 411.8C1226.7 389 1173.3 363 1120 349C1066.7 335 1013.3 333 960 338.3C906.7 343.7 853.3 356.3 800 348.7C746.7 341 693.3 313 640 325C586.7 337 533.3 389 480 410.7C426.7 432.3 373.3 423.7 320 418.3C266.7 413 213.3 411 160 407.8C106.7 404.7 53.3 400.3 26.7 398.2L0 396Z" fill="#2f3741"></path><path d="M0 606L26.7 607C53.3 608 106.7 610 160 610C213.3 610 266.7 608 320 610.2C373.3 612.3 426.7 618.7 480 617.5C533.3 616.3 586.7 607.7 640 603.3C693.3 599 746.7 599 800 598C853.3 597 906.7 595 960 596.2C1013.3 597.3 1066.7 601.7 1120 603.8C1173.3 606 1226.7 606 1280 607C1333.3 608 1386.7 610 1440 614.3C1493.3 618.7 1546.7 625.3 1600 622.2C1653.3 619 1706.7 606 1760 606C1813.3 606 1866.7 619 1893.3 625.5L1920 632L1920 383L1893.3 390.5C1866.7 398 1813.3 413 1760 442.2C1706.7 471.3 1653.3 514.7 1600 532C1546.7 549.3 1493.3 540.7 1440 522.2C1386.7 503.7 1333.3 475.3 1280 454.8C1226.7 434.3 1173.3 421.7 1120 417.5C1066.7 413.3 1013.3 417.7 960 424C906.7 430.3 853.3 438.7 800 423.5C746.7 408.3 693.3 369.7 640 378.5C586.7 387.3 533.3 443.7 480 463C426.7 482.3 373.3 464.7 320 465.7C266.7 466.7 213.3 486.3 160 495.2C106.7 504 53.3 502 26.7 501L0 500Z" fill="#39414c"></path><path d="M0 651L26.7 651C53.3 651 106.7 651 160 651C213.3 651 266.7 651 320 651C373.3 651 426.7 651 480 651C533.3 651 586.7 651 640 651C693.3 651 746.7 651 800 651C853.3 651 906.7 651 960 651C1013.3 651 1066.7 651 1120 651C1173.3 651 1226.7 651 1280 651C1333.3 651 1386.7 651 1440 651C1493.3 651 1546.7 651 1600 651C1653.3 651 1706.7 651 1760 651C1813.3 651 1866.7 651 1893.3 651L1920 651L1920 630L1893.3 623.5C1866.7 617 1813.3 604 1760 604C1706.7 604 1653.3 617 1600 620.2C1546.7 623.3 1493.3 616.7 1440 612.3C1386.7 608 1333.3 606 1280 605C1226.7 604 1173.3 604 1120 601.8C1066.7 599.7 1013.3 595.3 960 594.2C906.7 593 853.3 595 800 596C746.7 597 693.3 597 640 601.3C586.7 605.7 533.3 614.3 480 615.5C426.7 616.7 373.3 610.3 320 608.2C266.7 606 213.3 608 160 608C106.7 608 53.3 606 26.7 605L0 604Z" fill="#424b58"></path></svg>