<svg id="visual" viewBox="0 0 960 540" width="960" height="540" xmlns="http://www.w3.org/2000/svg" xmlns:xlink="http://www.w3.org/1999/xlink" version="1.1"><path d="M0 39L13.3 37.2C26.7 35.3 53.3 31.7 80 30.7C106.7 29.7 133.3 31.3 160 35C186.7 38.7 213.3 44.3 240 45.3C266.7 46.3 293.3 42.7 320 44.3C346.7 46 373.3 53 400 54.8C426.7 56.7 453.3 53.3 480 56.2C506.7 59 533.3 68 560 69.7C586.7 71.3 613.3 65.7 640 61.2C666.7 56.7 693.3 53.3 720 50.7C746.7 48 773.3 46 800 47.7C826.7 49.3 853.3 54.7 880 52.8C906.7 51 933.3 42 946.7 37.5L960 33L960 0L946.7 0C933.3 0 906.7 0 880 0C853.3 0 826.7 0 800 0C773.3 0 746.7 0 720 0C693.3 0 666.7 0 640 0C613.3 0 586.7 0 560 0C533.3 0 506.7 0 480 0C453.3 0 426.7 0 400 0C373.3 0 346.7 0 320 0C293.3 0 266.7 0 240 0C213.3 0 186.7 0 160 0C133.3 0 106.7 0 80 0C53.3 0 26.7 0 13.3 0L0 0Z" fill="#1b1f25"></path><path d="M0 71L13.3 70.2C26.7 69.3 53.3 67.7 80 70.3C106.7 73 133.3 80 160 82.7C186.7 85.3 213.3 83.7 240 79.2C266.7 74.7 293.3 67.3 320 68.2C346.7 69 373.3 78 400 86.2C426.7 94.3 453.3 101.7 480 103.5C506.7 105.3 533.3 101.7 560 101.7C586.7 101.7 613.3 105.3 640 107.2C666.7 109 693.3 109 720 107.2C746.7 105.3 773.3 101.7 800 100.8C826.7 100 853.3 102 880 94.8C906.7 87.7 933.3 71.3 946.7 63.2L960 55L960 31L946.7 35.5C933.3 40 906.7 49 880 50.8C853.3 52.7 826.7 47.3 800 45.7C773.3 44 746.7 46 720 48.7C693.3 51.3 666.7 54.7 640 59.2C613.3 63.7 586.7 69.3 560 67.7C533.3 66 506.7 57 480 54.2C453.3 51.3 426.7 54.7 400 52.8C373.3 51 346.7 44 320 42.3C293.3 40.7 266.7 44.3 240 43.3C213.3 42.3 186.7 36.7 160 33C133.3 29.3 106.7 27.7 80 28.7C53.3 29.7 26.7 33.3 13.3 35.2L0 37Z" fill="#1d2228"></path><path d="M0 120L13.3 123.5C26.7 127 53.3 134 80 148.3C106.7 162.7 133.3 184.3 160 190.7C186.7 197 213.3 188 240 174.5C266.7 161 293.3 143 320 142.2C346.7 141.3 373.3 157.7 400 169.3C426.7 181 453.3 188 480 184.3C506.7 180.7 533.3 166.3 560 161C586.7 155.7 613.3 159.3 640 163.8C666.7 168.3 693.3 173.7 720 182.7C746.7 191.7 773.3 204.3 800 202.5C826.7 200.7 853.3 184.3 880 177.2C906.7 170 933.3 172 946.7 173L960 174L960 53L946.7 61.2C933.3 69.3 906.7 85.7 880 92.8C853.3 100 826.7 98 800 98.8C773.3 99.7 746.7 103.3 720 105.2C693.3 107 666.7 107 640 105.2C613.3 103.3 586.7 99.7 560 99.7C533.3 99.7 506.7 103.3 480 101.5C453.3 99.7 426.7 92.3 400 84.2C373.3 76 346.7 67 320 66.2C293.3 65.3 266.7 72.7 240 77.2C213.3 81.7 186.7 83.3 160 80.7C133.3 78 106.7 71 80 68.3C53.3 65.7 26.7 67.3 13.3 68.2L0 69Z" fill="#1f242c"></path><path d="M0 293L13.3 293.8C26.7 294.7 53.3 296.3 80 299C106.7 301.7 133.3 305.3 160 309C186.7 312.7 213.3 316.3 240 298.3C266.7 280.3 293.3 240.7 320 230.7C346.7 220.7 373.3 240.3 400 248.3C426.7 256.3 453.3 252.7 480 249.2C506.7 245.7 533.3 242.3 560 250.5C586.7 258.7 613.3 278.3 640 296.3C666.7 314.3 693.3 330.7 720 343.3C746.7 356 773.3 365 800 351.5C826.7 338 853.3 302 880 279.5C906.7 257 933.3 248 946.7 243.5L960 239L960 172L946.7 171C933.3 170 906.7 168 880 175.2C853.3 182.3 826.7 198.7 800 200.5C773.3 202.3 746.7 189.7 720 180.7C693.3 171.7 666.7 166.3 640 161.8C613.3 157.3 586.7 153.7 560 159C533.3 164.3 506.7 178.7 480 182.3C453.3 186 426.7 179 400 167.3C373.3 155.7 346.7 139.3 320 140.2C293.3 141 266.7 159 240 172.5C213.3 186 186.7 195 160 188.7C133.3 182.3 106.7 160.7 80 146.3C53.3 132 26.7 125 13.3 121.5L0 118Z" fill="#21272f"></path><path d="M0 330L13.3 331.8C26.7 333.7 53.3 337.3 80 340.2C106.7 343 133.3 345 160 349.5C186.7 354 213.3 361 240 343C266.7 325 293.3 282 320 272.2C346.7 262.3 373.3 285.7 400 291.8C426.7 298 453.3 287 480 282.5C506.7 278 533.3 280 560 291.8C586.7 303.7 613.3 325.3 640 344.2C666.7 363 693.3 379 720 392.5C746.7 406 773.3 417 800 400C826.7 383 853.3 338 880 314.5C906.7 291 933.3 289 946.7 288L960 287L960 237L946.7 241.5C933.3 246 906.7 255 880 277.5C853.3 300 826.7 336 800 349.5C773.3 363 746.7 354 720 341.3C693.3 328.7 666.7 312.3 640 294.3C613.3 276.3 586.7 256.7 560 248.5C533.3 240.3 506.7 243.7 480 247.2C453.3 250.7 426.7 254.3 400 246.3C373.3 238.3 346.7 218.7 320 228.7C293.3 238.7 266.7 278.3 240 296.3C213.3 314.3 186.7 310.7 160 307C133.3 303.3 106.7 299.7 80 297C53.3 294.3 26.7 292.7 13.3 291.8L0 291Z" fill="#262d36"></path><path d="M0 417L13.3 417.8C26.7 418.7 53.3 420.3 80 413.2C106.7 406 133.3 390 160 389.2C186.7 388.3 213.3 402.7 240 386.3C266.7 370 293.3 323 320 315.8C346.7 308.7 373.3 341.3 400 354C426.7 366.7 453.3 359.3 480 353.8C506.7 348.3 533.3 344.7 560 348.3C586.7 352 613.3 363 640 380.2C666.7 397.3 693.3 420.7 720 435.8C746.7 451 773.3 458 800 443.5C826.7 429 853.3 393 880 368.8C906.7 344.7 933.3 332.3 946.7 326.2L960 320L960 285L946.7 286C933.3 287 906.7 289 880 312.5C853.3 336 826.7 381 800 398C773.3 415 746.7 404 720 390.5C693.3 377 666.7 361 640 342.2C613.3 323.3 586.7 301.7 560 289.8C533.3 278 506.7 276 480 280.5C453.3 285 426.7 296 400 289.8C373.3 283.7 346.7 260.3 320 270.2C293.3 280 266.7 323 240 341C213.3 359 186.7 352 160 347.5C133.3 343 106.7 341 80 338.2C53.3 335.3 26.7 331.7 13.3 329.8L0 328Z" fill="#2f3741"></path><path d="M0 503L13.3 504C26.7 505 53.3 507 80 507C106.7 507 133.3 505 160 506.7C186.7 508.3 213.3 513.7 240 512.8C266.7 512 293.3 505 320 501.5C346.7 498 373.3 498 400 497C426.7 496 453.3 494 480 494.8C506.7 495.7 533.3 499.3 560 501.2C586.7 503 613.3 503 640 504C666.7 505 693.3 507 720 510.7C746.7 514.3 773.3 519.7 800 516.8C826.7 514 853.3 503 880 503C906.7 503 933.3 514 946.7 519.5L960 525L960 318L946.7 324.2C933.3 330.3 906.7 342.7 880 366.8C853.3 391 826.7 427 800 441.5C773.3 456 746.7 449 720 433.8C693.3 418.7 666.7 395.3 640 378.2C613.3 361 586.7 350 560 346.3C533.3 342.7 506.7 346.3 480 351.8C453.3 357.3 426.7 364.7 400 352C373.3 339.3 346.7 306.7 320 313.8C293.3 321 266.7 368 240 384.3C213.3 400.7 186.7 386.3 160 387.2C133.3 388 106.7 404 80 411.2C53.3 418.3 26.7 416.7 13.3 415.8L0 415Z" fill="#39414c"></path><path d="M0 541L13.3 541C26.7 541 53.3 541 80 541C106.7 541 133.3 541 160 541C186.7 541 213.3 541 240 541C266.7 541 293.3 541 320 541C346.7 541 373.3 541 400 541C426.7 541 453.3 541 480 541C506.7 541 533.3 541 560 541C586.7 541 613.3 541 640 541C666.7 541 693.3 541 720 541C746.7 541 773.3 541 800 541C826.7 541 853.3 541 880 541C906.7 541 933.3 541 946.7 541L960 541L960 523L946.7 517.5C933.3 512 906.7 501 880 501C853.3 501 826.7 512 800 514.8C773.3 517.7 746.7 512.3 720 508.7C693.3 505 666.7 503 640 502C613.3 501 586.7 501 560 499.2C533.3 497.3 506.7 493.7 480 492.8C453.3 492 426.7 494 400 495C373.3 496 346.7 496 320 499.5C293.3 503 266.7 510 240 510.8C213.3 511.7 186.7 506.3 160 504.7C133.3 503 106.7 505 80 505C53.3 505 26.7 503 13.3 502L0 501Z" fill="#424b58"></path></svg>