<svg id="visual" viewBox="0 0 1920 650" width="1920" height="650" xmlns="http://www.w3.org/2000/svg" xmlns:xlink="http://www.w3.org/1999/xlink" version="1.1"><rect x="0" y="0" width="1920" height="650" fill="#222831"></rect><path d="M0 310L53.3 280C106.7 250 213.3 190 320 193.3C426.7 196.7 533.3 263.3 640 278C746.7 292.7 853.3 255.3 960 280.5C1066.7 305.7 1173.3 393.3 1280 395.5C1386.7 397.7 1493.3 314.3 1600 299.7C1706.7 285 1813.3 339 1866.7 366L1920 393L1920 651L1866.7 651C1813.3 651 1706.7 651 1600 651C1493.3 651 1386.7 651 1280 651C1173.3 651 1066.7 651 960 651C853.3 651 746.7 651 640 651C533.3 651 426.7 651 320 651C213.3 651 106.7 651 53.3 651L0 651Z" fill="#31363F" stroke-linecap="round" stroke-linejoin="miter"></path></svg>